<svg width="93" height="18" viewBox="0 0 93 18" fill="none" xmlns="http://www.w3.org/2000/svg">
<path d="M7.00391 11.4258H3.69922V18H0.734375V0.9375H6.73438C8.70312 0.9375 10.2227 1.37891 11.293 2.26172C12.3633 3.14453 12.8984 4.42188 12.8984 6.09375C12.8984 7.23438 12.6211 8.19141 12.0664 8.96484C11.5195 9.73047 10.7539 10.3203 9.76953 10.7344L13.6016 17.8477V18H10.4258L7.00391 11.4258ZM3.69922 9.04688H6.74609C7.74609 9.04688 8.52734 8.79688 9.08984 8.29688C9.65234 7.78906 9.93359 7.09766 9.93359 6.22266C9.93359 5.30859 9.67188 4.60156 9.14844 4.10156C8.63281 3.60156 7.85938 3.34375 6.82812 3.32812H3.69922V9.04688ZM28.0836 10.3828H21.0758V15.6328H29.2672V18H18.1109V0.9375H29.1852V3.32812H21.0758V8.03906H28.0836V10.3828ZM47.6164 18H44.6516L37.0461 5.89453V18H34.0812V0.9375H37.0461L44.675 13.0898V0.9375H47.6164V18ZM65.4969 3.32812H60.1766V18H57.2352V3.32812H51.9617V0.9375H65.4969V3.32812ZM73.2758 18H70.3227V0.9375H73.2758V18ZM85.4023 7.10156L88.9883 0.9375H92.4102L87.2539 9.39844L92.5273 18H89.0703L85.4023 11.7422L81.7227 18H78.2773L83.5625 9.39844L78.3945 0.9375H81.8164L85.4023 7.10156Z" fill="#093156"/>
</svg>
